<svg version="1.2" xmlns="http://www.w3.org/2000/svg" viewBox="0 0 1200 1200" width="1024" height="1024">
	<title>logo-svg</title>
	<style>
		.s0 { fill: #ffffff } 
		.s1 { fill: #482752 } 
		.s2 { fill: #c44057 } 
		.s3 { fill: #912d4e } 
		.s4 { fill: #fa9f58 } 
		.s5 { fill: #ef5f54 } 
	</style>
	<g>
		<g>
			<g>
				<path class="s0" d="m133.5 333.8l463-266.2 463 266.2v532.4l-463 266.2-463-266.2z"/>
				<path fill-rule="evenodd" class="s1" d="m600 1150l-478.5-275v-550l478.5-275 478.5 275v550zm-448.5-292.6l448 257.5 448-257.5v-514.8l-448-257.4-448 257.4z"/>
			</g>
			<g>
				<path class="s2" d="m600.3 880.8v-267l-460.5-280v280z"/>
				<path fill-rule="evenodd" class="s1" d="m600.3 896c-2.6 0-5.2-0.7-7.6-2.1l-460.5-266.9c-4.8-2.8-7.6-7.8-7.6-13.2v-280c0-5.5 2.9-10.6 7.7-13.3 4.8-2.7 10.7-2.6 15.4 0.3l460.6 280c4.5 2.7 7.3 7.7 7.3 13v267c0 5.4-2.9 10.4-7.6 13.2-2.4 1.3-5 2-7.7 2zm-445.3-291l430.1 249.3v-231.9l-430.1-261.5z"/>
			</g>
			<g>
				<path class="s3" d="m600.3 1132.4v-251.6l-460.5-267v251.7z"/>
				<path fill-rule="evenodd" class="s1" d="m600.3 1147.7c-2.6 0-5.2-0.7-7.6-2.1l-460.5-267c-4.8-2.7-7.6-7.7-7.6-13.1v-251.7c0-5.5 2.9-10.5 7.6-13.2 4.7-2.7 10.5-2.7 15.2 0l460.6 267c4.7 2.7 7.6 7.7 7.6 13.2v251.6c0 5.5-2.9 10.5-7.6 13.2-2.4 1.4-5 2.1-7.7 2.1zm-445.3-291l430.1 249.3v-216.5l-430.1-249.3z"/>
			</g>
			<g>
				<g>
					<path class="s4" d="m600.3 880.8v-267l460.6-280v280z"/>
					<path fill-rule="evenodd" class="s1" d="m600.3 896c-2.6 0-5.2-0.7-7.6-2-4.7-2.8-7.6-7.8-7.6-13.2v-267c0-5.3 2.8-10.3 7.3-13l460.6-280c4.7-2.9 10.6-3 15.4-0.3 4.8 2.7 7.7 7.8 7.7 13.3v280c0 5.4-2.9 10.4-7.6 13.2l-460.5 266.9c-2.4 1.4-5 2.1-7.7 2.1zm15.3-273.6v231.9l430.1-249.3v-244.1z"/>
				</g>
				<g>
					<path class="s5" d="m600.3 1132.4v-251.6l460.6-267v251.7z"/>
					<path fill-rule="evenodd" class="s1" d="m600.3 1147.7c-2.6 0-5.2-0.7-7.6-2.1-4.7-2.7-7.6-7.7-7.6-13.2v-251.6c0-5.5 2.9-10.5 7.6-13.2l460.6-267c4.7-2.7 10.5-2.7 15.2 0 4.7 2.7 7.6 7.7 7.6 13.2v251.7c0 5.4-2.9 10.4-7.6 13.1l-460.5 267c-2.4 1.4-5 2.1-7.7 2.1zm15.3-258.2v216.5l430.1-249.3v-216.5z"/>
				</g>
			</g>
			<g>
				<path class="s1" d="m868.4 450.9c-57.5-94.4-157.7-150.7-268.1-150.7-110.3 0-210.5 56.3-268 150.7l-26-15.9c63.1-103.5 173-165.3 294-165.3 121.1 0 231 61.8 294.1 165.3z"/>
			</g>
			<g style="opacity: .3">
				<path class="s1" d="m600.3 67.6v217.4c0 0-146.5 0-213.8 79l-67.2 78.9v517.4l-179.5-94.8v-531.7z"/>
			</g>
		</g>
	</g>
</svg>